<svg width="140" height="30" viewBox="0 0 140 30" fill="none" xmlns="http://www.w3.org/2000/svg">
<path d="M19.9932 9.87738C19.7532 9.61474 19.6733 9.25108 19.5933 8.90762C18.9935 6.4226 17.6739 4.0992 15.7346 2.44252C13.7953 0.78584 11.2561 -0.143518 8.73701 0.0181092C5.81801 0.220144 3.05895 1.97784 1.59945 4.52347C0.0199931 7.29134 0 10.6451 0 13.8373C0.0199932 19.2316 0.0599795 24.6057 0.0799726 30C4.69839 30 9.31681 30 13.9552 30C16.5543 30 19.2334 29.9798 21.6126 28.909C29.5699 25.333 28.2303 13.5342 20.7529 10.2815C20.473 10.2006 20.1931 10.0794 19.9932 9.87738ZM10.9363 16.888C11.696 14.7868 14.0752 13.0291 16.2544 12.9887C15.8546 14.8878 13.2355 16.8072 10.9363 16.888ZM15.9145 9.29148C15.1148 9.43291 14.2751 9.57433 13.5154 9.87738C9.51674 11.3522 7.21753 14.4232 6.65772 18.9891C6.55775 19.7569 6.87764 20.1811 7.65738 20.3226C13.2755 21.4337 17.634 19.1306 19.9332 13.8373C19.9532 13.7766 19.9732 13.7362 20.0131 13.6756C21.8325 14.6454 22.9321 16.1 23.412 18.1002C23.8718 20.0599 23.432 22.1005 22.1924 23.7167C20.9728 25.2926 19.1734 26.222 17.2141 26.2624C14.0752 26.323 10.8963 26.3028 7.81732 26.3028C6.55775 26.3028 5.29819 26.2826 4.03862 26.2826C3.93865 26.2826 3.81869 26.2624 3.69873 26.2422C3.69873 26.222 3.69873 26.222 3.69873 26.2018C3.67874 26.0401 3.63875 25.9189 3.63875 25.7775C3.63875 24.3228 3.63875 22.8884 3.61876 21.4337C3.59877 17.7567 3.59877 13.9787 3.63875 10.241C3.65875 8.32172 4.39849 6.58422 5.69805 5.35181C7.0176 4.0992 8.79699 3.45269 10.7363 3.55371C13.7353 3.69513 16.6343 6.4226 16.7543 9.12986C16.4944 9.19047 16.1945 9.25108 15.9145 9.29148Z" fill="#973B3A"/>
<path d="M49.2395 18.6494C49.2395 16.8897 47.7066 14.8073 45.6725 14.25C47.6771 13.6634 48.8857 12.2263 48.8857 9.99721C48.8857 6.71229 46.1442 4.68855 42.2824 4.68855H39.8357C38.1554 4.68855 35.4728 5.24581 34.5 5.59777V20.1746C34.5 23.3128 36.3572 24.9553 40.1305 24.9553H42.3119C45.9968 24.9553 49.2395 22.6969 49.2395 18.6494ZM44.8471 10.3492C44.8471 12.0796 43.3732 12.7835 41.575 12.7835H38.4797V8.23743C39.0398 8.14944 39.7178 8.03212 40.2189 8.03212H41.7223C43.2258 8.03212 44.8471 8.58939 44.8471 10.3492ZM45.1714 18.7668C45.1714 20.2919 44.1101 21.2891 41.9287 21.2891H40.2779C39.2756 21.2891 38.5091 20.7318 38.5091 20.0279V15.8925H41.7223C44.0807 15.8925 45.1714 16.5964 45.1714 18.7668Z" fill="#42313A"/>
<path d="M65.791 14.8073C65.791 11.0237 62.7252 8.67737 59.4235 8.67737C54.8838 8.67737 51.6411 11.9916 51.6411 17.2709C51.6411 22.1103 55.5028 25.2193 59.453 25.2193C63.8159 25.2193 65.2014 23.6648 65.2014 21.6411V20.4092H65.054C63.7864 21.5824 61.8408 21.905 60.19 21.905C57.8612 21.905 56.0335 20.6439 55.7387 18.6494H58.3328C63.5801 18.6494 65.791 17.7109 65.791 14.8073ZM62.0767 14.338C62.0767 15.4525 61.2218 15.8631 57.4779 15.8631H55.7092L55.7387 15.3352C55.8271 13.5168 57.1537 11.9623 59.0698 11.9623C60.8975 11.9623 62.0767 12.7542 62.0767 14.338Z" fill="#42313A"/>
<path d="M76.6575 22.6383V21.7877H75.5962C73.739 21.7877 72.9136 21.2891 72.9136 19.7053V6.38966C72.9136 4.89385 72.0587 3.75 70.0837 3.75H68.9635V20.0866C68.9635 23.2835 70.7322 25.014 74.0044 25.014C75.7436 25.014 76.6575 24.3394 76.6575 22.6383Z" fill="#42313A"/>
<path d="M90.9009 19.4707V15.8338C90.9009 10.3785 87.7172 8.73603 84.1797 8.73603C79.9937 8.73603 78.4018 10.8478 78.4018 12.6075V13.8687H78.5492C79.1388 13.1355 80.7306 12.0503 83.5901 12.0503C85.9484 12.0503 87.0097 12.7249 87.0097 14.9539V15.1592H85.6241C79.7873 15.1592 77.7238 17.3003 77.7238 20.1159C77.7238 23.0196 80.3179 25.1313 84.0912 25.1313H84.8872C88.4246 25.1313 90.9009 22.8142 90.9009 19.4707ZM87.0391 19.5C87.0391 21.1131 86.2137 21.9344 84.5039 21.9344C82.7647 21.9344 81.7624 21.2011 81.7624 19.9693C81.7624 18.6788 82.6173 17.9749 85.6241 17.9749H87.0391V19.5Z" fill="#42313A"/>
<path d="M108.037 24.8673V15.6578C108.037 11.1704 104.942 8.67737 101.198 8.67737C96.2453 8.67737 94.0344 12.1089 94.0344 15.4525V22.2863C94.0344 23.7528 95.1251 24.8673 96.8054 24.8673H97.9846V15.7165C97.9846 13.4581 99.1637 12.1676 100.874 12.1676C102.908 12.1676 104.087 13.3408 104.087 16.0098V22.2863C104.087 23.7528 105.207 24.8673 106.976 24.8673H108.037Z" fill="#42313A"/>
<path d="M120.992 21.4651C121.729 19.764 124.5 12.5489 124.5 10.8771C124.5 9.58659 123.91 9.02933 122.643 9.02933H120.933C120.579 12.2556 119.135 17.0363 117.838 19.9986C116.393 17.2123 115.214 13.9274 114.654 10.8771C114.448 9.76257 113.445 9.02933 112.355 9.02933H110.262C110.792 12.7542 113.799 20.6145 115.892 23.7528C115.037 25.9818 114.536 26.5684 113.092 26.6564L110.851 26.8031V27.5656C110.851 29.0321 112.148 30 113.622 30C116.482 30 118.044 28.3869 120.992 21.4651Z" fill="#42313A"/>
<path d="M63.1073 0.66675C63.4896 1.31933 63.2947 2.23538 62.6587 3.19764C62.1509 3.97927 61.3177 4.85471 60.5625 5.36373L59.6184 6L59.5525 5.88749C59.5658 4.81133 59.6343 3.7294 59.9 2.73429C60.189 1.62925 60.4421 0.862358 61.2602 0.310922C61.9526 -0.155677 62.6328 -0.143344 63.1073 0.66675Z" fill="#973B3A"/>
<path d="M132.731 0.376642V0H128.723C128.235 0 128 0.367884 128 0.656935V1.0511H129.717V5.19416C129.717 5.72847 130.022 6 130.44 6H130.919V1.0511H132.017C132.409 1.0511 132.731 0.665693 132.731 0.376642Z" fill="#973B3A"/>
<path d="M140 6C140 4.8 139.826 2.18978 139.712 1.2438C139.617 0.420438 139.181 0 138.519 0H138.379C138.135 0.20146 137.752 0.805839 137.447 1.76058L136.759 3.88905C136.698 4.09051 136.637 4.27445 136.593 4.50219C136.541 4.23066 136.436 3.87153 136.253 3.3635L135.425 1.01606C135.199 0.376643 134.615 0 133.787 0H133.535C133.317 1.19124 133.055 3.86277 133.055 5.20292C133.055 5.71095 133.36 6 133.805 6H134.223C134.223 4.90511 134.327 2.49635 134.484 1.63796C134.571 1.84818 134.711 2.2073 134.815 2.51387L135.669 5.04526C135.887 5.69343 136.236 6 136.628 6H136.95C137.116 5.7635 137.299 5.36058 137.438 4.93139L138.275 2.3562C138.362 2.08467 138.475 1.83942 138.554 1.64672C138.649 2.24234 138.78 4.44088 138.78 5.20292C138.78 5.74599 139.094 6 139.547 6H140Z" fill="#973B3A"/>
</svg>
