<svg width="12" height="12" viewBox="0 0 12 12" fill="none" xmlns="http://www.w3.org/2000/svg">
<path d="M3.1765 0C1.4167 0 0 1.4167 0 3.1765V8.8235C0 10.5833 1.4167 12 3.1765 12H8.8235C10.5833 12 12 10.5833 12 8.8235V3.1765C12 1.4167 10.5833 0 8.8235 0H3.1765ZM9.5294 1.7647C9.9193 1.7647 10.2353 2.0807 10.2353 2.4706C10.2353 2.8604 9.9193 3.1765 9.5294 3.1765C9.1396 3.1765 8.8235 2.8604 8.8235 2.4706C8.8235 2.0807 9.1396 1.7647 9.5294 1.7647ZM6 2.647C7.8476 2.647 9.3529 4.1524 9.3529 6C9.3529 7.8476 7.8476 9.3529 6 9.3529C4.1524 9.3529 2.6471 7.8476 2.6471 6C2.6471 4.1524 4.1524 2.647 6 2.647ZM6 3.6765C4.7131 3.6765 3.6765 4.7131 3.6765 6C3.6765 7.2869 4.7131 8.3235 6 8.3235C7.2869 8.3235 8.3235 7.2869 8.3235 6C8.3235 4.7131 7.2869 3.6765 6 3.6765Z" fill="#F2EBE5"/>
</svg>
