<svg width="18" height="18" viewBox="0 0 18 18" fill="none" xmlns="http://www.w3.org/2000/svg">
<path d="M17.1826 13.3381L15.3081 11.4255C14.9049 11.0436 14.3962 10.7906 13.8476 10.699C13.2989 10.6074 12.7353 10.6813 12.2291 10.9112L11.4141 10.0993C12.3745 8.82081 12.8131 7.22734 12.6416 5.63965C12.4702 4.05195 11.7013 2.58792 10.4899 1.54227C9.27848 0.496617 7.71442 -0.0530085 6.11258 0.0040342C4.51073 0.0610769 2.99005 0.720552 1.85666 1.8497C0.723261 2.97885 0.0613065 4.49384 0.00404937 6.08968C-0.0532078 7.68552 0.498484 9.24372 1.54807 10.4506C2.59765 11.6575 4.06718 12.4235 5.66085 12.5943C7.25452 12.7651 8.85397 12.3282 10.1372 11.3714L10.9432 12.1743C10.6852 12.6792 10.5927 13.252 10.6788 13.812C10.7649 14.3721 11.0253 14.891 11.4232 15.2958L13.343 17.2085C13.8524 17.7153 14.5429 18 15.2628 18C15.9827 18 16.6732 17.7153 17.1826 17.2085C17.4414 16.9564 17.647 16.6554 17.7873 16.3231C17.9277 15.9907 18 15.6338 18 15.2733C18 14.9127 17.9277 14.5558 17.7873 14.2235C17.647 13.8912 17.4414 13.5902 17.1826 13.3381ZM9.50335 9.51286C8.86966 10.1426 8.06285 10.5711 7.18484 10.7442C6.30684 10.9173 5.39702 10.8273 4.57033 10.4856C3.74363 10.1438 3.03715 9.56564 2.54013 8.82408C2.04311 8.08251 1.77784 7.21082 1.77784 6.31914C1.77784 5.42745 2.04311 4.55576 2.54013 3.8142C3.03715 3.07263 3.74363 2.49445 4.57033 2.15269C5.39702 1.81094 6.30684 1.72094 7.18484 1.89407C8.06285 2.0672 8.86966 2.49569 9.50335 3.12541C9.92501 3.54444 10.2596 4.04222 10.4878 4.59025C10.7161 5.13828 10.8336 5.7258 10.8336 6.31914C10.8336 6.91248 10.7161 7.49999 10.4878 8.04802C10.2596 8.59605 9.92501 9.09383 9.50335 9.51286ZM15.9057 15.8913C15.8216 15.9758 15.7214 16.043 15.6111 16.0888C15.5007 16.1346 15.3823 16.1581 15.2628 16.1581C15.1432 16.1581 15.0249 16.1346 14.9145 16.0888C14.8042 16.043 14.704 15.9758 14.6198 15.8913L12.7 13.9787C12.6151 13.8948 12.5478 13.795 12.5018 13.6851C12.4558 13.5751 12.4322 13.4572 12.4322 13.3381C12.4322 13.219 12.4558 13.1011 12.5018 12.9911C12.5478 12.8812 12.6151 12.7814 12.7 12.6976C12.7842 12.613 12.8844 12.5459 12.9947 12.5001C13.1051 12.4543 13.2234 12.4307 13.343 12.4307C13.4625 12.4307 13.5809 12.4543 13.6912 12.5001C13.8016 12.5459 13.9017 12.613 13.9859 12.6976L15.9057 14.6102C15.9906 14.694 16.058 14.7938 16.104 14.9038C16.1499 15.0137 16.1736 15.1316 16.1736 15.2507C16.1736 15.3698 16.1499 15.4877 16.104 15.5977C16.058 15.7076 15.9906 15.8074 15.9057 15.8913Z" fill="#42313A"/>
</svg>
