<svg width="30" height="30" viewBox="0 0 30 30" fill="none" xmlns="http://www.w3.org/2000/svg">
<path fill-rule="evenodd" clip-rule="evenodd" d="M10.5249 6C7.27117 6 5 8.88148 5 12.2448C5 16.125 8.00414 19.7011 14.4493 23.8375C14.6172 23.9452 14.808 24 15 24C15.1919 24 15.3828 23.9453 15.5507 23.8375C21.9959 19.7011 25 16.125 25 12.2449C25 8.88333 22.7307 6 19.4751 6C17.7558 6 16.2569 6.81669 15.1456 8.32508C15.069 8.42902 15.0345 8.48099 15 8.48099C14.9655 8.48099 14.931 8.42901 14.8544 8.32507C13.7431 6.81668 12.2442 6 10.5249 6ZM19.4751 8.18771C18.435 8.18771 17.5416 8.66587 16.8109 9.65758C16.254 10.4134 16.0118 11.1839 16.0038 11.2092C15.8715 11.6587 15.4712 11.9827 15 11.9827C14.5293 11.9827 14.1295 11.6599 13.9968 11.211C13.9909 11.1922 13.7413 10.3932 13.1631 9.62257C12.4371 8.65493 11.5525 8.18775 10.5249 8.18775C8.51319 8.18775 7.09951 10.009 7.09951 12.2449C7.09951 13.6721 7.71423 15.1207 9.03497 16.6819C10.3253 18.2072 12.2751 19.8254 15 21.6171C17.7249 19.8254 19.6747 18.2072 20.965 16.6819C22.2858 15.1207 22.9005 13.6721 22.9005 12.2448C22.9005 10.0107 21.489 8.18771 19.4751 8.18771Z" fill="#42313A"/>
</svg>
